<svg width="24" height="24" viewBox="0 0 24 24" fill="none" xmlns="http://www.w3.org/2000/svg">
<path d="M23.3135 13.4386C23.752 12.7425 24 12 24 11.1023C24 9.03914 22.1391 7.09078 19.709 7.09078H17.885C18.131 6.49031 18.3275 5.77219 18.3275 4.90922C18.3275 1.497 16.443 0 13.564 0C10.4837 0 10.6594 4.44998 9.976 5.09062C8.83865 6.15689 7.49525 8.20533 6.538 9H1.6C0.71635 9 0 9.67158 0 10.5V21.75C0 22.5784 0.71635 23.25 1.6 23.25H4.8C5.54465 23.25 6.1704 22.7731 6.3489 22.1273C8.57435 22.1743 10.1019 23.9995 15.239 23.9995C15.6 23.9995 16 24 16.35 24C20.2059 24 21.9493 22.152 21.997 19.5314C22.663 18.6677 23.012 17.5101 22.864 16.3912C23.3567 15.5263 23.5472 14.5002 23.3135 13.4386ZM20.226 15.9619C20.854 16.9523 20.289 18.278 19.529 18.6605C19.914 20.947 18.6486 21.7495 16.873 21.7495H14.982C11.4001 21.7495 9.08055 19.9767 6.4 19.9767V11.25H6.946C8.364 11.25 10.345 7.92703 11.673 6.68156C13.091 5.35219 12.6185 3.13641 13.564 2.25C15.9275 2.25 15.9275 3.79594 15.9275 4.90922C15.9275 6.74531 14.5095 7.56797 14.5095 9.34078H19.709C20.7645 9.34078 21.5955 10.2272 21.6 11.1136C21.6045 11.9995 20.959 12.8859 20.4865 12.8859C21.161 13.5682 21.305 15.0064 20.226 15.9619V15.9619ZM4.4 20.25C4.4 20.8713 3.86275 21.375 3.2 21.375C2.53725 21.375 2 20.8713 2 20.25C2 19.6287 2.53725 19.125 3.2 19.125C3.86275 19.125 4.4 19.6287 4.4 20.25Z" fill="white"/>

</svg>
